<svg xmlns="http://www.w3.org/2000/svg" viewBox="0 0 159.27 212.91"><defs><style>.cls-1{fill:#d18d58;}.cls-2{fill:#7d4e24;}.cls-3{fill:#daa17c;}.cls-4{fill:#683c11;}.cls-5{fill:#432918;}.cls-6{fill:#c69263;}.cls-7,.cls-8{fill:none;stroke:#432918;stroke-miterlimit:10;stroke-width:2px;}.cls-8{stroke-linecap:round;}</style></defs><g id="Layer_2" data-name="Layer 2"><g id="Layer_1-2" data-name="Layer 1"><path class="cls-1" d="M83.72,168.42l10.07,18c10.43,2.37,12.07,8.81,12.07,8.81l.76,3.8.42,2.06c1.59,7.8,10.07,13,18.94,11.6A16.17,16.17,0,0,0,138.19,204a32.94,32.94,0,0,0,1.95-5.34,27.28,27.28,0,0,0,.88-9.22,31.14,31.14,0,0,0-5.48-15.13,47,47,0,0,0-10.15-10.56,58.86,58.86,0,0,0-5.65-3.87c-1-.59-2-1.16-3-1.71-.53-.28-1.06-.55-1.63-.83l-.92-.42c-.4-.17-.53-.25-1.37-.56C101,152.64,88,158,83.72,168.42Z"/><path class="cls-2" d="M113.75,203.58c-1,3.18,4.27,5.87,8.56,6.49s8.06-1,8.43-3.54-3.57-5.27-7.86-5.89S114.57,201.09,113.75,203.58Z"/><path class="cls-1" d="M75.55,168.42l-10.07,18c-10.43,2.37-12.07,8.81-12.07,8.81l-.76,3.8-.42,2.06c-1.59,7.8-10.07,13-18.94,11.6A16.17,16.17,0,0,1,21.08,204a32.94,32.94,0,0,1-1.95-5.34,27.28,27.28,0,0,1-.88-9.22,31.14,31.14,0,0,1,5.48-15.13,46.77,46.77,0,0,1,10.15-10.56,60,60,0,0,1,5.64-3.87c1-.59,2-1.16,3-1.71.53-.28,1.06-.55,1.63-.83l.92-.42c.4-.17.52-.25,1.37-.56C58.26,152.64,71.28,158,75.55,168.42Z"/><path class="cls-1" d="M135.48,144.71c0,32.63-22.63,44.22-55.85,44.22s-54.76-11.59-54.76-44.22S46.42,70.78,79.63,70.78,135.48,112.09,135.48,144.71Z"/><path class="cls-3" d="M107.42,148.93c0,15.8-11.18,21.41-27.61,21.41s-27.08-5.61-27.08-21.41,10.66-35.81,27.08-35.81S107.42,133.13,107.42,148.93Z"/><path class="cls-1" d="M142,61.9c0,34.68-23.24,39.1-61.78,39.1S18.39,96.58,18.39,61.9,41.63,0,80.17,0,142,27.22,142,61.9Z"/><circle class="cls-1" cx="35.06" cy="17.89" r="16.89"/><path class="cls-4" d="M41.43,12.84a73.85,73.85,0,0,0-11.9,11A1.63,1.63,0,0,1,27,23.8,10,10,0,0,1,41.55,10.29,1.63,1.63,0,0,1,41.43,12.84Z"/><circle class="cls-1" cx="125.28" cy="17.89" r="16.89"/><path class="cls-4" d="M118.91,12.84a73.85,73.85,0,0,1,11.9,11,1.63,1.63,0,0,0,2.54-.06,10,10,0,0,0-14.57-13.51A1.64,1.64,0,0,0,118.91,12.84Z"/><circle class="cls-5" cx="51.95" cy="47.78" r="6.78"/><circle class="cls-5" cx="108.39" cy="47.78" r="6.78"/><path class="cls-3" d="M108.4,81.81c0,6-1,12.88-5.07,18.26-7.24.71-15,.93-23.16.93s-16.06-.22-23.36-1C52.83,94.67,52,87.78,52,81.81c0-11.89,4.59-24.57,28.13-24.57C101.48,57.24,108.4,69.92,108.4,81.81Z"/><path class="cls-5" d="M85.15,59.33c0,2.64-1.5,4.78-4.91,4.78S75,62,75,59.33s1.83-4.78,5.24-4.78S85.15,56.69,85.15,59.33Z"/><path class="cls-6" d="M77.41,56.92c-.25.34-.58.76-.92.5s-.14-.66.11-1,.91-.7,1.25-.45S77.66,56.58,77.41,56.92Z"/><path class="cls-1" d="M13.51,152.62A13.55,13.55,0,0,1,.34,136.11c6-26.47,34.72-39.1,38-40.45a13.5,13.5,0,0,1,10.43,24.91c-5.29,2.25-19.56,10.52-22.08,21.55A13.52,13.52,0,0,1,13.51,152.62Z"/><path class="cls-2" d="M45.52,203.58c1,3.18-4.27,5.87-8.56,6.49s-8.06-1-8.43-3.54,3.57-5.27,7.86-5.89S44.7,201.09,45.52,203.58Z"/><path class="cls-1" d="M145.75,152.62a13.55,13.55,0,0,0,13.18-16.51c-6-26.47-34.72-39.1-38-40.45a13.5,13.5,0,0,0-10.43,24.91c5.29,2.25,19.56,10.52,22.08,21.55A13.51,13.51,0,0,0,145.75,152.62Z"/><line class="cls-7" x1="80.08" y1="63.26" x2="80.08" y2="74.81"/><path class="cls-8" d="M93.57,70.78c-2.75,2.42-7.69,4-13.34,4s-10.6-1.61-13.34-4"/></g></g></svg>